<?xml version="1.0" encoding="utf-8"?>
<svg viewBox="0 0 180 180" width="180px" height="180px" xmlns="http://www.w3.org/2000/svg" xmlns:bx="https://boxy-svg.com">
  <g transform="matrix(-0.018075, 0, 0, -0.018074, 79.730392, 21.078379)" style="" bx:origin="-0.329944 1">
    <path style="stroke: none; stroke-width: 1; stroke-dasharray: none; stroke-linecap: butt; stroke-dashoffset: 0; stroke-linejoin: miter; stroke-miterlimit: 4; fill-rule: nonzero; opacity: 1; fill: rgb(255, 255, 255);" vector-effect="non-scaling-stroke" transform=" translate(-10733.15, -15766.2)" d="M 10393 16923 C 10385 16903 10397 16310 10410 16070 C 10423 15835 10438 15338 10447 14923 C 10450 14745 10457 14600 10461 14600 C 10466 14600 10478 14630 10490 14668 C 10501 14705 10521 14764 10535 14800 C 10548 14836 10584 14935 10614 15020 C 10644 15105 10683 15213 10701 15260 C 10773 15453 10844 15665 10891 15825 C 10953 16038 11088 16670 11075 16690 C 11061 16712 10642 16870 10462 16920 C 10406 16936 10398 16936 10393 16923 z" stroke-linecap="round"/>
  </g>
  <g transform="matrix(-0.018075, 0, 0, -0.018074, 72.932755, 38.956764)" style="" bx:origin="-0.236138 1.119984">
    <path style="stroke: none; stroke-width: 1; stroke-dasharray: none; stroke-linecap: butt; stroke-dashoffset: 0; stroke-linejoin: miter; stroke-miterlimit: 4; fill-rule: nonzero; opacity: 1; fill: rgb(255, 255, 255);" vector-effect="non-scaling-stroke" transform=" translate(-11099.84, -14801.76)" d="M 11262 16513 C 11251 16497 11226 16440 11206 16385 C 11186 16330 11154 16249 11136 16205 C 11117 16161 11097 16107 11090 16085 C 11083 16063 11065 16011 11049 15970 C 11034 15929 10999 15832 10971 15755 C 10910 15583 10807 15305 10745 15145 C 10719 15079 10688 14996 10675 14960 C 10662 14924 10642 14870 10630 14840 C 10605 14777 10544 14611 10493 14465 L 10458 14365 L 10465 14065 C 10469 13900 10475 13609 10479 13418 C 10482 13227 10488 13068 10492 13065 C 10501 13055 10519 13092 10599 13293 C 10638 13392 10683 13497 10699 13528 C 10734 13597 10885 13943 10947 14095 C 10972 14156 11000 14223 11011 14246 C 11064 14364 11471 15406 11547 15620 C 11680 15991 11754 16223 11740 16228 C 11735 16230 11716 16242 11698 16254 C 11680 16267 11598 16320 11515 16371 C 11433 16423 11348 16482 11326 16503 C 11305 16523 11286 16540 11284 16540 C 11283 16540 11273 16528 11262 16513 z" stroke-linecap="round"/>
  </g>
  <g transform="matrix(-0.018075, 0, 0, -0.018074, 67.825836, 55.981476)" style="" bx:origin="-0.193696 1.235149">
    <path style="stroke: none; stroke-width: 1; stroke-dasharray: none; stroke-linecap: butt; stroke-dashoffset: 0; stroke-linejoin: miter; stroke-miterlimit: 4; fill-rule: nonzero; opacity: 1; fill: rgb(255, 255, 255);" vector-effect="non-scaling-stroke" transform=" translate(-11375.25, -13883.43)" d="M 11833 15942 C 11768 15842 11651 15577 11389 14938 C 11173 14411 10993 13990 10880 13750 C 10717 13402 10698 13359 10605 13125 C 10495 12848 10488 12795 10491 12275 C 10493 11875 10498 11764 10512 11778 C 10517 11783 10561 11863 10609 11956 C 10657 12049 10734 12195 10780 12280 C 10857 12423 10996 12705 11066 12860 C 11082 12896 11123 12984 11159 13055 C 11227 13195 11383 13524 11432 13630 C 11448 13666 11488 13751 11520 13820 C 11789 14399 11852 14547 12098 15171 C 12201 15430 12260 15598 12260 15629 C 12260 15648 12216 15693 12160 15731 C 12125 15754 11950 15908 11897 15962 C 11882 15977 11869 15990 11867 15990 C 11866 15990 11850 15968 11833 15942 z" stroke-linecap="round"/>
  </g>
  <g transform="matrix(-0.018075, 0, 0, -0.018074, 63.122116, 72.512611)" style="" bx:origin="-0.161803 1.346988">
    <path style="stroke: none; stroke-width: 1; stroke-dasharray: none; stroke-linecap: butt; stroke-dashoffset: 0; stroke-linejoin: miter; stroke-miterlimit: 4; fill-rule: nonzero; opacity: 1; fill: rgb(255, 255, 255);" vector-effect="non-scaling-stroke" transform=" translate(-11629, -12991.66)" d="M 12211 15080 C 12138 14926 12071 14781 12061 14757 C 12040 14710 11783 14169 11651 13895 C 11374 13323 10994 12556 10833 12245 C 10744 12073 10573 11706 10537 11611 L 10505 11525 L 10507 11099 C 10509 10690 10515 10610 10540 10625 C 10545 10628 10569 10671 10594 10719 C 10618 10768 10656 10836 10678 10871 C 10699 10906 10736 10971 10760 11015 C 10784 11059 10852 11185 10913 11295 C 10973 11405 11056 11558 11098 11635 C 11139 11712 11243 11903 11329 12060 C 11489 12354 11501 12377 11590 12545 C 11619 12600 11657 12672 11675 12705 C 11693 12738 11760 12869 11825 12995 C 11890 13122 12007 13349 12086 13500 C 12355 14017 12582 14509 12726 14888 L 12753 14961 L 12719 14998 C 12625 15101 12364 15360 12354 15360 C 12348 15360 12283 15234 12211 15080 z" stroke-linecap="round"/>
  </g>
  <g transform="matrix(-0.018075, 0, 0, -0.018074, 59.210922, 86.631508)" style="" bx:origin="-0.145481 1.498555">
    <path style="stroke: none; stroke-width: 1; stroke-dasharray: none; stroke-linecap: butt; stroke-dashoffset: 0; stroke-linejoin: miter; stroke-miterlimit: 4; fill-rule: nonzero; opacity: 1; fill: rgb(255, 255, 255);" vector-effect="non-scaling-stroke" transform=" translate(-11839.96, -12230)" d="M 12772 14603 C 12737 14552 12674 14437 12555 14205 C 12490 14079 12429 13960 12419 13943 C 12393 13896 12146 13440 12058 13275 C 11968 13107 11883 12943 11725 12635 C 11660 12509 11572 12342 11530 12265 C 11488 12188 11415 12055 11368 11970 C 11321 11885 11238 11732 11183 11630 C 11060 11404 11042 11372 10970 11245 C 10793 10937 10739 10839 10658 10685 C 10512 10408 10520 10437 10520 10160 C 10520 9886 10525 9830 10549 9830 C 10604 9830 10768 9982 10896 10151 C 10992 10277 11083 10427 11370 10930 C 11504 11164 11633 11389 11658 11430 C 11683 11471 11727 11546 11755 11595 C 11783 11645 11862 11782 11930 11900 C 12067 12138 12112 12219 12173 12330 C 12195 12371 12247 12464 12288 12535 C 12404 12736 12484 12880 12583 13065 C 12693 13272 12995 13876 13040 13980 C 13058 14021 13092 14094 13116 14142 C 13140 14190 13160 14235 13160 14242 C 13160 14250 13125 14291 13082 14335 C 13040 14379 12961 14463 12907 14523 C 12853 14582 12805 14630 12800 14630 C 12795 14630 12783 14618 12772 14603 z" stroke-linecap="round"/>
  </g>
  <g transform="matrix(-0.018075, 0, 0, -0.018074, 56.634537, 100.572426)" style="" bx:origin="-0.132533 1.719706">
    <path style="stroke: none; stroke-width: 1; stroke-dasharray: none; stroke-linecap: butt; stroke-dashoffset: 0; stroke-linejoin: miter; stroke-miterlimit: 4; fill-rule: nonzero; opacity: 1; fill: rgb(255, 255, 255);" vector-effect="non-scaling-stroke" transform=" translate(-11978.93, -11477.99)" d="M 13021 13668 C 12991 13617 12946 13539 12920 13495 C 12894 13451 12825 13330 12768 13225 C 12710 13121 12605 12932 12534 12805 C 12464 12679 12374 12514 12335 12440 C 12259 12294 12128 12066 11964 11792 C 11907 11697 11860 11617 11860 11615 C 11860 11613 11846 11587 11829 11558 C 11724 11381 11617 11199 11555 11090 C 11411 10839 11144 10397 11043 10241 C 10876 9984 10745 9833 10608 9742 C 10514 9679 10515 9683 10522 9451 C 10529 9218 10548 9183 10659 9201 C 10813 9225 10997 9361 11223 9620 C 11398 9820 11495 9963 11735 10375 C 11852 10574 12095 10977 12255 11235 C 12289 11290 12357 11405 12405 11490 C 12500 11657 12870 12277 12901 12322 C 12911 12337 12973 12454 13039 12582 C 13104 12710 13171 12838 13187 12865 C 13217 12917 13246 12974 13350 13195 C 13383 13266 13418 13332 13427 13343 C 13442 13359 13442 13364 13430 13383 C 13416 13406 13089 13757 13080 13759 C 13077 13760 13050 13718 13021 13668 z" stroke-linecap="round"/>
  </g>
  <g transform="matrix(-0.018075, 0, 0, -0.018074, 73.582062, 142.195053)" style="" bx:origin="-0.292731 5.570037">
    <path style="stroke: none; stroke-width: 1; stroke-dasharray: none; stroke-linecap: butt; stroke-dashoffset: 0; stroke-linejoin: miter; stroke-miterlimit: 4; fill-rule: nonzero; opacity: 1; fill: rgb(255, 255, 255);" vector-effect="non-scaling-stroke" transform=" translate(-11064.82, -9232.74)" d="M 11628 9997 C 11609 9950 11429 9695 11355 9610 C 11256 9497 11102 9346 11005 9268 C 10920 9200 10795 9132 10677 9090 C 10629 9072 10581 9051 10571 9042 C 10534 9010 10498 8885 10493 8769 C 10486 8640 10502 8581 10558 8528 C 10604 8483 10626 8472 10690 8460 C 10757 8447 10848 8475 10943 8538 C 11272 8754 11525 9237 11620 9832 C 11641 9963 11644 10039 11628 9997 z" stroke-linecap="round"/>
  </g>
  <path d="M 89.931 180.166 C 52.61 180.166 22.356 149.912 22.356 112.591 C 22.356 99.753 25.936 87.752 32.152 77.53 L 37.917 88.074 C 34.392 95.542 32.422 103.887 32.422 112.691 C 32.422 144.582 58.275 170.435 90.166 170.435 C 94.188 170.435 98.115 170.024 101.905 169.241 L 126.785 169.241 C 116.186 176.151 103.527 180.166 89.931 180.166 Z" style="stroke: rgb(0, 0, 0); stroke-width: 0px; fill: rgb(255, 255, 255);"/>
  <path d="M 96.029 165.139 L 96.029 44.848 L 126.515 44.848 Q 142.79 44.848 151.176 52.821 Q 159.562 60.794 159.562 76.326 Q 159.562 85.579 155.266 92.436 Q 150.97 99.293 143.369 102.35 Q 152.126 104.581 157.538 112.553 Q 162.949 120.526 162.949 131.266 Q 162.949 146.963 154.357 156.051 Q 145.765 165.139 129.985 165.139 Z M 105.448 107.39 L 105.448 156.382 L 130.398 156.382 Q 141.138 156.382 147.334 149.772 Q 153.531 143.163 153.531 131.431 Q 153.531 120.526 147.789 114.082 Q 142.047 107.637 131.802 107.39 Z M 105.448 98.715 L 127.341 98.715 Q 138.081 98.715 144.03 93.014 Q 149.978 87.314 149.978 76.078 Q 149.978 64.594 144.154 59.182 Q 138.329 53.771 126.515 53.771 L 105.448 53.771 Z" style="fill: rgb(255, 255, 255); text-transform: uppercase; white-space: pre;"/>
</svg>